<?xml version="1.0" encoding="utf-8"?>
<svg xmlns="http://www.w3.org/2000/svg" width="58" height="58" viewBox="0 0 58 58" style="">
					<path fill-rule="evenodd" clip-rule="evenodd" fill="#1BCE7C" d="M40.174 4.469c-3.41-1.556-7.189-2.446-11.183-2.446-14.913 0-27.001 12.089-27.001 27.001 0 14.913 12.089 27.002 27.001 27.002 14.914 0 27.001-12.089 27.001-27.002 0-.862-.049-1.713-.129-2.555l1.975-.186c.084.896.139 1.803.139 2.721 0 16.02-12.979 29.006-28.989 29.006-16.009.001-28.988-12.986-28.988-29.005s12.979-29.005 28.988-29.005c4.295 0 8.358.959 12.024 2.637l-.838 1.832z"></path>
				</svg>