<?xml version="1.0" encoding="utf-8"?>
<svg xmlns="http://www.w3.org/2000/svg" xmlns:xlink="http://www.w3.org/1999/xlink" version="1.1" width="150px" viewBox="0 0 674 137" style="enable-background:new 0 0 674 137;" xml:space="preserve"> 
					<path class="letter" d="M6.3,109.1c1.4-1.8,4-2.1,6-0.5c6,4.4,15.4,10,26.3,10c6.7,0,12.4-2.1,16.3-5.3c4.2-2.8,6.5-6.7,6.5-10.5  c-0.2-4-1.8-6.8-6.1-10.5c-3.7-2.8-9.8-4.9-18.2-6.3l-0.3-0.2c-7.7-1.4-14.6-3.2-19.5-6.7c-5.4-3.2-9.3-8.8-9.3-15.4  c0-6.8,3.9-12.8,9.3-16.8c5.1-3.5,12.3-5.8,21-5.8c11,0,18.9,5.1,25.6,9.3c1.9,1.4,2.5,4,1.2,6c-1.2,1.9-3.9,2.5-5.8,1.2  c-6.3-4.2-12.6-8.6-21-8.6c-7,0-12.6,1.9-16.3,4.9c-3.5,2.8-5.4,6.3-5.4,9.8c0,3.5,1.6,6,4.9,8.6c3.9,2.6,9.6,4.7,17.5,6h0.4  c8.2,1.2,14.9,3.7,20.9,7c5.6,3.7,9.6,10.3,9.6,17.5s-4,13-9.8,17.4c-6,4.4-13,6.8-21.4,6.8c-13.9-0.2-24.7-6.7-31.7-12.3  C5.1,113.1,4.9,110.9,6.3,109.1z"/> 
					<path class="letter" d="M221.5,76.1c-0.4-14.6-11.9-26.7-26.7-26.7c-14.6,0-26.5,12.1-26.5,26.7V123v0.5c0,0.2-0.2,0.4-0.2,0.4v0.4  c-0.3,1.1-1.2,1.8-2.1,2.3c-0.7,0.4-1.4,0.5-2.1,0.5h-0.5h-0.4c-0.2,0-0.4-0.2-0.4-0.2c-0.4,0-0.7-0.4-1.1-0.5  c-0.2,0-0.4-0.2-0.5-0.4l-0.5-0.5c-0.2-0.2-0.2-0.4-0.4-0.4c0-0.2,0-0.2-0.2-0.4c0,0,0-0.2-0.2-0.4c0-0.2,0-0.3-0.2-0.5v-0.5V123  V76.1c0-14.6-11.7-26.7-26.5-26.7c-14.7,0-26.5,12.1-26.5,26.7V123c0,1.4-0.7,2.6-1.9,3.3c-0.2,0.2-0.7,0.5-1.1,0.5  c-0.2,0.2-0.4,0.2-0.7,0.2h-0.5H102c-1.6-0.2-3-1.6-3.5-3.2V123V76.1v-1.4V45.3c0-2.3,1.9-4,4-4c2.5,0,4.2,1.8,4.2,4v8.2  c6.3-7.5,15.8-12.3,26.5-12.3c13.3,0,24.7,7.4,30.7,18.2c6.1-10.9,17.7-18.2,30.9-18.2c19.3,0,34.9,15.6,34.9,34.9V123  c0,2.1-1.8,4-4.2,4c-2.3,0-4-1.9-4-4V76.1z"/> 
					<path class="letter" d="M373.8,45.5c0-2.5,1.9-4.2,4.4-4.2c2.1,0,4,1.8,4,4.2v18.9c0.4-0.7,0.7-1.4,1.2-2.1  c6.5-10.2,17.9-21,34.4-21c2.3,0,4.2,1.8,4.2,4.2c0,2.3-1.9,4.2-4.2,4.2c-11.2,0-18.9,6.3-24.9,14c-5.8,7.7-9.1,16.5-10.3,20  c-0.4,0.7-0.4,1.1-0.4,1.4v37.7c0,2.5-1.9,4.2-4,4.2c-2.5,0-4.4-1.8-4.4-4.2V45.5z"/> 					<path class="letter" d="M480.8,45.3c0,2.1-2.1,4.2-4.2,4.2h-11v62.6c0,4.2,4.2,6.3,6.3,6.3s4.4,2.3,4.4,4.4c0,2.1-2.3,4.2-4.4,4.2  c-8.6,0-15.1-6.3-15.1-14.9V49.5h-10.7c-4.2,0-4.2-2.1-4.2-4.2c0-2.1,0-4.2,4.2-4.2h10.7V9.2c0-2.1,2.1-4.2,4.2-4.2  c2.3,0,4.6,2.1,4.6,4.2v31.9h11C478.7,41.1,480.8,43.2,480.8,45.3z"/> 
					<g>						<g>
							<path class="corchet" d="M520.5,86.4l-0.1-0.1c-0.3-0.3-0.6-0.5-0.7-0.8c-0.1-0.1-0.1-0.3-0.1-0.3    c-0.1-0.1-0.1-0.3-0.1-0.4c-0.1-0.3-0.1-0.4-0.1-0.7c-0.1-0.4-0.1-0.8,0-1.2c0-0.3,0.1-0.5,0.3-1c0.1-0.3,0.3-0.5,0.4-0.7l0.4-0.4    l0.1-0.1l46.7-43.7c1.6-1.4,4.4-1.5,6.1,0c1.5,1.6,1.5,4.1,0,5.7l-44,40.8l44,41c1.5,1.5,1.5,3.8,0,5.3c-0.7,0.8-1.9,1.2-3.1,1.2    c-1,0-2.1-0.4-3-1.2L520.5,86.4z"/>							<path class="corchet" d="M616.4,124.5l44-41l-44-40.8c-1.5-1.6-1.5-4.1,0-5.7c1.6-1.5,4.4-1.4,6.1,0l46.7,43.7    l0.1,0.1c0.7,0.7,1.2,1.8,1.2,2.7c0,0.8-0.3,1.8-0.9,2.5c0,0.1-0.1,0.1-0.3,0.3l-0.1,0.1l-46.7,43.4c-0.7,0.8-1.9,1.2-3,1.2    c-1.2,0-2.2-0.4-3.1-1.2C614.9,128.3,614.9,126,616.4,124.5z"/>						</g>
					</g>
					<path class="search" d="M349.1,121.8l-18.5-16c3.5-6.3,5.5-13.6,5.5-21.4c0-23.7-18.2-43-40.7-43s-40.7,19.2-40.7,43  s18.2,43,40.7,43c12.2,0,23.1-5.7,30.5-14.7l17.8,15.4c1.6,1.4,4.2,1.3,5.7-0.4C351.1,125.7,350.7,123.1,349.1,121.8z M295.4,118.8  c-17.5,0-32.3-15.3-32.3-34.5s14.7-34.7,32.3-34.7c17.7,0,32.3,15.4,32.3,34.7S313.2,118.8,295.4,118.8z"/>
				</svg>